<?xml version="1.0" encoding="utf-8"?>
<!-- Generator: Adobe Illustrator 17.1.0, SVG Export Plug-In . SVG Version: 6.00 Build 0)  -->
<!DOCTYPE svg PUBLIC "-//W3C//DTD SVG 1.1//EN" "http://www.w3.org/Graphics/SVG/1.1/DTD/svg11.dtd">
<svg version="1.1" id="Слой_1" xmlns="http://www.w3.org/2000/svg" xmlns:xlink="http://www.w3.org/1999/xlink" x="0px" y="0px"
	 viewBox="0 0 25.5 23.6" enable-background="new 0 0 25.5 23.6" xml:space="preserve">
<path fill="#F0801C" d="M25.4,8.6l-1.1,5.7c-0.1,0.7-0.8,1.2-1.5,1.2h-14l0.4,2.2l13.3,0c0.5,0,1,0.4,1,1s-0.4,1-1,1l-14.1,0
	c0,0,0,0,0,0c-0.4,0-0.9-0.3-0.9-0.8L4.3,2.9L0.7,1.9C0.2,1.7-0.1,1.2,0,0.7S0.7-0.1,1.2,0l4.1,1.2c0.1,0,0.3,0.1,0.4,0.2
	C5.8,1.6,6,1.8,6,2l0.7,3.3c0.1,0,0.2,0,0.3,0l17.1,1.6C25,7,25.6,7.8,25.4,8.6z M10.9,20.5c-0.8,0-1.5,0.7-1.5,1.5s0.7,1.5,1.5,1.5
	s1.5-0.7,1.5-1.5C12.5,21.2,11.8,20.5,10.9,20.5z M20,20.5c-0.8,0-1.5,0.7-1.5,1.5s0.7,1.5,1.5,1.5s1.5-0.7,1.5-1.5
	C21.5,21.2,20.8,20.5,20,20.5z"/>
</svg>
