<?xml version="1.0" encoding="utf-8"?>
<!-- Generator: Adobe Illustrator 17.1.0, SVG Export Plug-In . SVG Version: 6.00 Build 0)  -->
<!DOCTYPE svg PUBLIC "-//W3C//DTD SVG 1.1//EN" "http://www.w3.org/Graphics/SVG/1.1/DTD/svg11.dtd">
<svg version="1.1" id="Слой_1" xmlns="http://www.w3.org/2000/svg" xmlns:xlink="http://www.w3.org/1999/xlink" x="0px" y="0px"
	 viewBox="0 0 25.3 25.3" enable-background="new 0 0 25.3 25.3" xml:space="preserve">
<g>
	<path fill="#F5D32A" d="M17.7,16.2c-0.3-0.2-1.5-1.3-1.7-1.5c-0.2-0.2-0.4-0.3-0.7,0c-0.3,0.2-1,0.7-1.2,0.9
		c-0.2,0.1-0.4,0.1-0.7-0.1c-0.3-0.2-1.1-0.8-2-2.1c-0.7-1-1-2.1-1.1-2.5c-0.1-0.3,0.1-0.5,0.3-0.6c0.2-0.1,0.4-0.3,0.6-0.4
		c0.2-0.1,0.3-0.2,0.4-0.4c0.2-0.2,0.2-0.3,0.1-0.5c0-0.2-0.2-1.8-0.3-2.4C11.4,6,11.1,6,10.9,5.9c-0.2,0-0.4-0.1-0.6-0.2
		c-0.2-0.1-0.5-0.1-0.9,0.1C9.1,6.1,8.2,6.6,7.8,8.1c-0.4,1.4,0.3,3.1,0.4,3.3c0.1,0.2,1.1,3.8,3.8,5.8c2.7,2,2.8,1.6,3.3,1.7
		c0.6,0.1,1.9-0.2,2.4-0.8c0.4-0.6,0.6-1.2,0.6-1.3C18.2,16.5,18,16.4,17.7,16.2z"/>
	<path fill="#F5D32A" d="M12.9,0C6,0,0.5,5.5,0.5,12.3c0,2.3,0.7,4.5,1.8,6.4L0,25.3l6.9-2.2c1.8,1,3.8,1.5,6,1.5
		c6.9,0,12.4-5.5,12.4-12.3C25.3,5.5,19.7,0,12.9,0z M12.9,22.7c-2.1,0-4.1-0.6-5.7-1.7l-4,1.3l1.3-3.8c-1.2-1.7-2-3.8-2-6.1
		C2.4,6.6,7.1,2,12.9,2c5.8,0,10.4,4.6,10.4,10.4C23.3,18,18.6,22.7,12.9,22.7z"/>
</g>
</svg>
