<?xml version="1.0" encoding="utf-8"?>
<!-- Generator: Adobe Illustrator 17.1.0, SVG Export Plug-In . SVG Version: 6.00 Build 0)  -->
<!DOCTYPE svg PUBLIC "-//W3C//DTD SVG 1.1//EN" "http://www.w3.org/Graphics/SVG/1.1/DTD/svg11.dtd">
<svg version="1.1" id="Слой_1" xmlns="http://www.w3.org/2000/svg" xmlns:xlink="http://www.w3.org/1999/xlink" x="0px" y="0px"
	 viewBox="0 0 12.9 12.9" enable-background="new 0 0 12.9 12.9" xml:space="preserve">
<g>
	<path fill="#D8D9D9" d="M12.5,12.5L12.5,12.5c-0.5,0.5-1.3,0.5-1.8,0L0.4,2.1c-0.5-0.5-0.5-1.3,0-1.8l0,0c0.5-0.5,1.3-0.5,1.8,0
		l10.4,10.4C13,11.2,13,12,12.5,12.5z"/>
	<path fill="#D8D9D9" d="M12.5,0.4L12.5,0.4c0.5,0.5,0.5,1.3,0,1.8L2.1,12.5c-0.5,0.5-1.3,0.5-1.8,0l0,0c-0.5-0.5-0.5-1.3,0-1.8
		L10.7,0.4C11.2-0.1,12-0.1,12.5,0.4z"/>
</g>
</svg>
