<?xml version="1.0" encoding="utf-8"?>
<!-- Generator: Adobe Illustrator 17.1.0, SVG Export Plug-In . SVG Version: 6.00 Build 0)  -->
<!DOCTYPE svg PUBLIC "-//W3C//DTD SVG 1.1//EN" "http://www.w3.org/Graphics/SVG/1.1/DTD/svg11.dtd">
<svg version="1.1" id="Слой_1" xmlns="http://www.w3.org/2000/svg" xmlns:xlink="http://www.w3.org/1999/xlink" x="0px" y="0px"
	 viewBox="0 0 6.2 10.8" enable-background="new 0 0 6.2 10.8" xml:space="preserve">
<g>
	<path fill="#D8D9D9" d="M6,6L6,6C5.6,6.3,5.1,6.3,4.8,6L0.3,1.5c-0.3-0.3-0.3-0.9,0-1.2l0,0c0.3-0.3,0.9-0.3,1.2,0L6,4.8
		C6.3,5.1,6.3,5.6,6,6z"/>
	<path fill="#D8D9D9" d="M6,4.8L6,4.8C6.3,5.1,6.3,5.7,6,6l-4.5,4.5c-0.3,0.3-0.9,0.3-1.2,0l0,0c-0.3-0.3-0.3-0.9,0-1.2l4.5-4.5
		C5.1,4.4,5.6,4.4,6,4.8z"/>
</g>
</svg>
